# xmcd CD database file
#
# Track frame offsets:
#	150
#	18258
#	35237
#	55520
#	67055
#
# Disc length: 1105 seconds
#
# Revision: 8
# Processed by: cddbd v1.5.2PL0 Copyright (c) Steve Scherf et al.
# Submitted via: CDex 1.70beta3
#
DISCID=3e044f05
DTITLE=ELLEGARDEN - ELLEGARDEN
DYEAR=2001
DGENRE=J-Loud
TTITLE0=The End Of The World
TTITLE1=Stupid
TTITLE2=花
TTITLE3=Punk
TTITLE4=ナイフ
EXTD=YEAR: 2001
EXTT0=
EXTT1=
EXTT2=
EXTT3=
EXTT4=
PLAYORDER=
